<?xml version="1.0" encoding="UTF-8"?>
<svg enable-background="new 0 0 128 128" version="1.1" viewBox="0 0 128 128" xml:space="preserve"
    xmlns="http://www.w3.org/2000/svg">
    <path d="m23.9 106.2c6.2 1.9 11.8 2.3 17.8 0" fill="none" stroke="#3F51B5" stroke-linecap="round" stroke-linejoin="round" stroke-miterlimit="10" stroke-width="2"/>
    <path d="m88.7 22.4 14 14-2.1 2.1-11-11-3.4 3.4c-0.8 0.8-0.8 2.1 0 2.8l1.3 1.3-37.2 37.2-0.4-0.4c-0.4-0.4-1-0.4-1.4 0l-11 11-4.6-4.6 55.8-55.8z" fill="#E0F7FA"/>
    <path d="m105.6 39.3-55.8 55.8-4.6-4.6 10.9-10.9c0.4-0.4 0.4-1 0-1.4l-0.4-0.4 37.3-37.3 1.7 1.7c0.6 0.6 1.6 0.6 2.2 0l5.8-5.8 2.9 2.9z" fill="#E0F7FA"/>
    <path d="m96.9 42.2c-0.6 0.6-1.6 0.6-2.2 0l-8.5-8.5c-0.8-0.8-0.8-2 0-2.8l3.4-3.4 11 11-3.7 3.7z" fill="#7986CB"/>
    <polygon points="22.6 102.3 22.6 102.3 27.1 94 34 100.9 25.7 105.4 25.7 105.4" fill="#FDD835"/>
    <polygon points="49.8 95.1 34 100.9 27.1 94 32.9 78.2 37.5 82.8 45.2 90.5" fill="#C0CA33"/>
    <path d="m56.2 78.1c0.4 0.4 0.4 1 0 1.4l-11 11-7.7-7.7 10.9-10.9c0.4-0.4 1-0.4 1.4 0l5.9 5.9 0.5 0.3z" fill="#9E9D24"/>
    <polygon points="81.1 52.4 55.8 77.7 50.3 72.2 75.6 46.9" fill="#263238"/>
    <path d="m105.6 39.3-16.9-16.9c4.6-1.1 9.6 0.1 13.2 3.7s4.8 8.6 3.7 13.2z" fill="#3F51B5"/>
    <polygon points="93 40.5 81.1 52.4 75.6 46.9 87.5 35" fill="#E0F7FA"/>
    <g fill="none" stroke-linejoin="round" stroke-miterlimit="10" stroke-width="2">
        <line x1="88.7" x2="32.9" y1="22.4" y2="78.2" stroke="#80DEEA"/>
        <line x1="49.8" x2="105.6" y1="95.1" y2="39.3" stroke="#80DEEA"/>
        <line x1="87.5" x2="75.6" y1="35" y2="46.9" stroke="#fff"/>
        <line x1="81.1" x2="93" y1="52.4" y2="40.5" stroke="#fff"/>
        <line x1="75.6" x2="50.3" y1="46.9" y2="72.2" stroke="#455A64"/>
        <line x1="55.8" x2="81.1" y1="77.7" y2="52.4" stroke="#455A64"/>
        <path d="m37.5 82.8 10.9-10.9c0.4-0.4 1-0.4 1.4 0l6.3 6.3c0.4 0.4 0.4 1 0 1.4l-10.9 10.9" stroke="#827717"/>
        <path d="m100.5 38.5-3.7 3.7c-0.6 0.6-1.6 0.6-2.2 0l-1.6-1.7-6.8-6.8c-0.8-0.8-0.8-2 0-2.8l3.4-3.4" stroke="#5C6BC0"/>
        <path d="m25.7 105.4c-0.9 0.8-2.2 0.8-3.1 0-0.8-0.8-0.8-2.2 0-3.1" stroke="#3F51B5"/>
        <polyline points="27.1 94 22.6 102.3 22.6 102.3 25.7 105.4 25.7 105.4 34 100.9" stroke="#FBC02D"/>
        <polygon points="34 100.9 49.8 95.1 45.2 90.5 37.5 82.8 32.9 78.2 27.1 94" stroke="#9E9D24"/>
        <path d="m105.6 39.3c1.1-4.6-0.1-9.6-3.7-13.2s-8.6-4.8-13.2-3.7l16.9 16.9z" stroke="#303F9F"/>
    </g>
    <g fill="none" stroke-linecap="round" stroke-linejoin="round" stroke-miterlimit="10" stroke-width="2">
        <path d="m22.6 19.9c-3-0.3-5.6 2.9-5.5 5.9 0.2 4.2 4.7 7.7 8.8 6.8s6.8-5.8 5.5-9.8c-1.4-4-6.4-6.3-10.3-4.7s-6 6.5-4.5 10.5" stroke="#5C6BC0"/>
        <path d="m107.6 75.3c-1.5 1.2-1.2 3.8 0.3 5 1.6 1.1 4.1 0.7 5-1 1-1.7 0-4.2-1.8-4.7-1.9-0.5-4 1.3-3.7 3.2" stroke="#5C6BC0"/>
        <path d="m74.6 102.5c-3.5 1.9-5.1 6.8-3.2 10.3 1.8 3.6 6.6 5.2 10.3 3.6s5.6-6.2 4.3-10-5.6-6.2-9.5-5.4-6.9 4.7-6.8 8.7" stroke="#5C6BC0"/>
        <path d="m17.2 57.8c0.5 4.2 1.1 8.3 1.6 12.5" stroke="#3F51B5"/>
        <path d="m10.2 64.4c5.2-0.2 10.3-0.3 15.5-0.5" stroke="#3F51B5"/>
        <path d="m75.6 9.1c1.8 2.2 3.6 4.4 5.5 6.5" stroke="#7986CB"/>
        <path d="m81 9.2c-3.8 2.1-6.8 5.5-8.7 9.4" stroke="#7986CB"/>
        <path d="m103.7 95.8c-0.8 3-1.7 6-2.5 9" stroke="#3F51B5"/>
        <path d="m98.2 99.5c4.2 1 8.3 2 12.5 3" stroke="#3F51B5"/>
    </g>
</svg>