<svg version="1.1" xmlns="http://www.w3.org/2000/svg" viewBox="0 0 28 28">
    <circle fill='#aaaaaa' cx='14' cy='14' r='14'></circle>
    <path fill='white' d="M8.64 8.49C9.69 6.65 11.58 5.72 14.31 5.71C18.41 5.7 20.81 8.79 20.63 11.38C20.44 13.98 18.69 14.48 17.41 15.29C16.13 16.1 15.42 16.65 15.27 17.23C15.16 17.61 15.11 17.89 15.13 18.07L12.91 18.07C12.93 17.33 13.04 16.71 13.25 16.19C13.56 15.41 13.72 15.3 14.53 14.35C15.34 13.4 16.31 12.54 16.28 10.62C16.25 8.7 15.5 7.66 14.09 7.7C12.69 7.73 11.75 8.93 11.61 10.62C11.52 11.74 10.53 11.03 8.64Z"></path>
    <circle fill='white' cx='14.25' cy='21.5' r='2'></circle>
</svg>